<svg width="19.436401" height="23.483154" viewBox="0 0 19.4364 23.4832" fill="none" xmlns="http://www.w3.org/2000/svg" xmlns:xlink="http://www.w3.org/1999/xlink">
	<desc>
			Created with Pixso.
	</desc>
	<path id="shopping-bag" d="M19.425 22.5024L17.9961 6.58862C17.9571 6.15405 17.5928 5.82117 17.1566 5.82117L14.2098 5.82117L14.2098 4.49213C14.2098 2.01514 12.1947 0 9.7179 0C7.24115 0 5.22632 2.01514 5.22632 4.49213L5.22632 5.82117L2.27747 5.82117C1.84119 5.82117 1.47693 6.15405 1.43799 6.58862L0.00335693 22.565C-0.0177612 22.8008 0.0611572 23.0344 0.220825 23.209C0.380554 23.3837 0.606323 23.4832 0.842896 23.4832L18.5913 23.4832C19.0569 23.4832 19.4364 23.1058 19.4364 22.6403C19.4363 22.5934 19.4325 22.5472 19.425 22.5024ZM6.91211 4.49213C6.91211 2.9447 8.17078 1.68579 9.71796 1.68579C11.2653 1.68579 12.5241 2.9447 12.5241 4.49213L12.5241 5.82117L6.91211 5.82117L6.91211 4.49213ZM1.76489 21.7975L3.0481 7.50696L5.22632 7.50696L5.22632 9.01422C5.22632 9.47974 5.60358 9.85712 6.06921 9.85712C6.53479 9.85712 6.91211 9.47974 6.91211 9.01422L6.91211 7.50696L12.5241 7.50696L12.5241 9.01422C12.5241 9.47974 12.9014 9.85712 13.367 9.85712C13.8326 9.85712 14.2099 9.47974 14.2099 9.01422L14.2099 7.50696L16.3861 7.50696L17.6693 21.7975L1.76489 21.7975Z" fill-rule="evenodd" fill="#FFFFFF"/>
	<defs/>
</svg>
