<svg width="8.816406" height="8.806885" viewBox="0 0 8.81641 8.80688" fill="none" xmlns="http://www.w3.org/2000/svg" xmlns:xlink="http://www.w3.org/1999/xlink">
	<desc>
			Created with Pixso.
	</desc>
	<path id="Vector" d="M6.52905 5.39673C6.53003 5.78247 6.64014 5.93604 6.92725 5.9353C7.56689 5.93372 7.97217 5.11743 7.96875 3.7616C7.96338 1.68921 6.45068 0.70105 4.56543 0.705933C2.62573 0.710938 0.86499 2.01611 0.871338 4.47424C0.877197 6.82214 2.42383 8.09692 4.7937 8.09082C5.59839 8.08875 6.13843 7.99915 6.96387 7.72144L7.14307 8.45911C6.32812 8.7262 5.45654 8.80518 4.78467 8.80688C1.67603 8.81482 0.00683594 7.1106 0 4.47607C-0.00683594 1.81946 1.91797 0.00671387 4.57446 0C7.34131 -0.00720215 8.81128 1.64258 8.81641 3.67078C8.8208 5.39038 8.28442 6.70349 6.58691 6.70789C5.81494 6.70984 5.30762 6.40247 5.2395 5.71875C5.04321 6.47986 4.51465 6.71313 3.79761 6.71497C2.83862 6.71741 2.03198 5.98059 2.02832 4.49292C2.02441 2.99377 2.72803 2.06604 3.99561 2.06274C4.66797 2.06104 5.08765 2.32446 5.27515 2.74292L5.59375 2.15784L6.51978 2.15552L6.52808 5.39673L6.52905 5.39673ZM5.16992 3.94519C5.16821 3.33936 4.71533 3.08655 4.34033 3.08752C3.93262 3.0885 3.48193 3.41992 3.48438 4.39038C3.48633 5.16199 3.82935 5.59106 4.34692 5.58972C4.71069 5.58875 5.17334 5.35608 5.17188 4.7168L5.16992 3.94519Z" fill-rule="nonzero" fill="#575DFB"/>
	<defs/>
</svg>
