<svg width="16.000000" height="12.305382" viewBox="0 0 16 12.3054" fill="none" xmlns="http://www.w3.org/2000/svg" xmlns:xlink="http://www.w3.org/1999/xlink">
	<desc>
			Created with Pixso.
	</desc>
	<mask id="path-1-inside-1" fill="white">
		<path id="Union 1" d="M3.89606 5L7.36017 1.85738C7.78522 1.43233 7.78522 0.743839 7.36017 0.318789C6.93512 -0.106262 6.24658 -0.106262 5.82159 0.318789L0.31427 5.31565C0.0845947 5.54531 -0.0167236 5.85221 0.0022583 6.15297C-0.0167236 6.45372 0.0845947 6.76062 0.31427 6.99028L5.82208 11.9866C6.24713 12.4116 6.93561 12.4116 7.36066 11.9866C7.78571 11.5615 7.78571 10.8731 7.36066 10.448L3.55994 7L15 7C15.5523 7 16 6.55228 16 6C16 5.44771 15.5523 5 15 5L3.89606 5Z" clip-rule="evenodd" fill-rule="evenodd" fill-opacity="0.000000"/>
	</mask>
	<path id="Union 1" d="M3.89606 5L7.36017 1.85738C7.78522 1.43233 7.78522 0.743839 7.36017 0.318789C6.93512 -0.106262 6.24658 -0.106262 5.82159 0.318789L0.31427 5.31565C0.0845947 5.54531 -0.0167236 5.85221 0.0022583 6.15297C-0.0167236 6.45372 0.0845947 6.76062 0.31427 6.99028L5.82208 11.9866C6.24713 12.4116 6.93561 12.4116 7.36066 11.9866C7.78571 11.5615 7.78571 10.8731 7.36066 10.448L3.55994 7L15 7C15.5523 7 16 6.55228 16 6C16 5.44771 15.5523 5 15 5L3.89606 5Z" clip-rule="evenodd" fill-rule="evenodd" fill="#262626" fill-opacity="1.000000"/>
	<defs/>
</svg>
