<svg width="16.000000" height="12.305382" viewBox="0 0 16 12.3054" fill="none" xmlns="http://www.w3.org/2000/svg" xmlns:xlink="http://www.w3.org/1999/xlink">
	<desc>
			Created with Pixso.
	</desc>
	<mask id="path-1-inside-1" fill="white">
		<path id="Union 1" d="M12.1039 5L8.63983 1.85738C8.21478 1.43233 8.21478 0.743843 8.63983 0.318787C9.06488 -0.106262 9.75342 -0.106262 10.1784 0.318787L15.6857 5.31565C15.9154 5.54531 16.0167 5.85221 15.9977 6.15296C16.0167 6.45372 15.9154 6.76062 15.6857 6.99028L10.1779 11.9866C9.75287 12.4116 9.06439 12.4116 8.63934 11.9866C8.21429 11.5615 8.21429 10.8731 8.63934 10.448L12.4401 7L1 7C0.447693 7 0 6.55228 0 6C0 5.44771 0.447693 5 1 5L12.1039 5Z" clip-rule="evenodd" fill-rule="evenodd" fill-opacity="0.000000"/>
	</mask>
	<path id="Union 1" d="M12.1039 5L8.63983 1.85738C8.21478 1.43233 8.21478 0.743843 8.63983 0.318787C9.06488 -0.106262 9.75342 -0.106262 10.1784 0.318787L15.6857 5.31565C15.9154 5.54531 16.0167 5.85221 15.9977 6.15296C16.0167 6.45372 15.9154 6.76062 15.6857 6.99028L10.1779 11.9866C9.75287 12.4116 9.06439 12.4116 8.63934 11.9866C8.21429 11.5615 8.21429 10.8731 8.63934 10.448L12.4401 7L1 7C0.447693 7 0 6.55228 0 6C0 5.44771 0.447693 5 1 5L12.1039 5Z" clip-rule="evenodd" fill-rule="evenodd" fill="#262626" fill-opacity="1.000000"/>
	<defs/>
</svg>
