<svg width="15.990051" height="15.994995" viewBox="0 0 15.9901 15.995" fill="none" xmlns="http://www.w3.org/2000/svg" xmlns:xlink="http://www.w3.org/1999/xlink">
	<desc>
			Created with Pixso.
	</desc>
	<path id="home" d="M15.5604 6.95703L9.03467 0.431519C8.75656 0.153259 8.38678 0 7.99347 0C7.60016 0 7.23041 0.153137 6.95218 0.431396L0.430908 6.95251C-0.140198 7.52692 -0.145813 8.46558 0.427124 9.03857C0.688873 9.30042 1.03461 9.45209 1.40424 9.46796L1.70969 9.47015L1.70969 14.2718C1.70969 15.2219 2.48276 15.995 3.43314 15.995L5.98581 15.995C6.24451 15.995 6.45441 15.7852 6.45441 15.5264L6.45441 11.7619C6.45441 11.3284 6.8071 10.9757 7.24066 10.9757L8.74631 10.9757C9.17987 10.9757 9.53256 11.3284 9.53256 11.7619L9.53256 15.5264C9.53256 15.7852 9.74234 15.995 10.0012 15.995L12.5538 15.995C13.5042 15.995 14.2773 15.2219 14.2773 14.2718L14.2773 9.47015L14.5184 9.47015C14.9116 9.47015 15.2814 9.31702 15.5597 9.03882C16.1333 8.46484 16.1335 7.53137 15.5604 6.95703Z" fill-rule="evenodd" fill="#060DD9"/>
	<defs/>
</svg>
