<svg width="8.363770" height="9.652222" viewBox="0 0 8.36377 9.65222" fill="none" xmlns="http://www.w3.org/2000/svg" xmlns:xlink="http://www.w3.org/1999/xlink">
	<desc>
			Created with Pixso.
	</desc>
	<path id="Vector" d="M3.73853 5.26123C3.61206 5.35901 3.52124 5.49561 3.47998 5.65002C3.43872 5.80432 3.44922 5.96802 3.51001 6.11584C3.5708 6.26367 3.67847 6.38745 3.81641 6.46814L3.81909 7.50867L4.56201 7.50671L4.55933 6.46619C4.66821 6.40149 4.75854 6.30969 4.82129 6.19971C4.88403 6.08972 4.91748 5.96545 4.91797 5.83875C4.91772 5.74231 4.89844 5.64685 4.86108 5.55786C4.82397 5.46887 4.76929 5.38818 4.70068 5.32031C4.63232 5.25256 4.55078 5.19897 4.46143 5.16272C4.37207 5.12634 4.27637 5.10815 4.17993 5.10901C4.02026 5.10999 3.86499 5.16357 3.73853 5.26123Z" stroke="#575DFB" stroke-width="0.459294" stroke-linejoin="round"/>
	<path id="Vector" d="M6.92554 3.42151C7.45947 3.42017 7.89331 3.85181 7.89478 4.38562L7.90454 8.20972C7.90601 8.74353 7.47437 9.17737 6.94043 9.17883L1.43823 9.19287C0.904297 9.19434 0.470459 8.76257 0.468994 8.22876L0.459229 4.40479C0.458008 3.87085 0.889648 3.43701 1.42334 3.43567L6.92554 3.42151Z" stroke="#575DFB" stroke-width="0.918588" stroke-linejoin="round"/>
	<path id="Vector" d="M1.79272 3.43469L1.79126 2.85071C1.78955 2.21814 2.03931 1.61072 2.4856 1.16223C2.93164 0.713867 3.53784 0.460938 4.17041 0.459351C4.80298 0.457764 5.4104 0.707397 5.85889 1.15369C6.30737 1.59985 6.56006 2.20581 6.56177 2.8385L6.56323 3.42249" stroke="#575DFB" stroke-width="0.918588" stroke-linejoin="round" stroke-linecap="round"/>
	<defs/>
</svg>
