<svg width="7.628174" height="8.764404" viewBox="0 0 7.62817 8.7644" fill="none" xmlns="http://www.w3.org/2000/svg" xmlns:xlink="http://www.w3.org/1999/xlink">
	<desc>
			Created with Pixso.
	</desc>
	<path id="Vector" d="M3.80591 4.09631C4.19702 4.09534 4.57935 3.97827 4.90405 3.76013C5.229 3.54187 5.48169 3.23218 5.63062 2.87036C5.7793 2.50842 5.81763 2.11047 5.74023 1.72693C5.66284 1.34326 5.47363 0.991211 5.19604 0.71521C4.9187 0.439331 4.56567 0.251709 4.18164 0.176392C3.79785 0.101074 3.40015 0.141235 3.03882 0.29187C2.67773 0.442627 2.36938 0.697021 2.15283 1.02295C1.93628 1.34875 1.82129 1.73169 1.82227 2.12292C1.82373 2.64771 2.03345 3.15039 2.40527 3.52051C2.77734 3.8905 3.28101 4.09766 3.80591 4.09631ZM3.79712 0.704712C4.07666 0.703979 4.3501 0.786133 4.58276 0.940796C4.81567 1.09546 4.99731 1.3158 5.10498 1.57373C5.21265 1.83167 5.24146 2.11572 5.1875 2.39001C5.13379 2.66431 4.99976 2.91638 4.80249 3.11462C4.60547 3.31274 4.354 3.448 4.08008 3.50317C3.80591 3.55847 3.52173 3.53113 3.26318 3.42493C3.00488 3.3186 2.78369 3.13806 2.62769 2.90601C2.47192 2.67395 2.38818 2.401 2.38745 2.12146C2.38647 1.7467 2.53467 1.38684 2.79883 1.12109C3.06323 0.855469 3.42236 0.705566 3.79712 0.704712ZM5.72754 5.05298C6.33398 5.31226 6.8811 5.6925 7.33569 6.17041C7.43311 6.27551 7.48706 6.41382 7.48657 6.55725L7.49023 8.04395C7.49072 8.19385 7.43164 8.33777 7.32568 8.44397C7.21997 8.55029 7.07642 8.61023 6.92651 8.6106L0.708496 8.62659C0.55835 8.62695 0.414551 8.56775 0.30835 8.46204C0.201904 8.35632 0.14209 8.21265 0.141602 8.06274L0.137939 6.57605C0.137207 6.43225 0.191406 6.2937 0.289551 6.18848C0.741455 5.70825 1.28687 5.3252 1.89185 5.06287C2.49683 4.80054 3.14917 4.66431 3.80859 4.6626C4.46826 4.66101 5.12109 4.79382 5.72754 5.05298ZM0.703125 6.57178L0.707031 8.06128L6.92505 8.04529L6.92114 6.55579C6.51953 6.13501 6.03662 5.80042 5.50146 5.57227C4.96631 5.34412 4.39038 5.22729 3.80884 5.22876C3.22705 5.23022 2.65186 5.3501 2.11792 5.58093C1.58398 5.81189 1.10254 6.14893 0.703125 6.57178Z" fill-rule="evenodd" fill="#575DFB"/>
	<path id="Vector" d="M4.90405 3.76013C5.229 3.54187 5.48169 3.23218 5.63062 2.87036C5.7793 2.50842 5.81763 2.11047 5.74023 1.72693C5.66284 1.34326 5.47363 0.991211 5.19604 0.71521C4.9187 0.439331 4.56567 0.251709 4.18164 0.176392C3.79785 0.101074 3.40015 0.141235 3.03882 0.29187C2.67773 0.442627 2.36938 0.697021 2.15283 1.02295C1.93628 1.34875 1.82129 1.73169 1.82227 2.12292C1.82373 2.64771 2.03345 3.15039 2.40527 3.52051C2.77734 3.8905 3.28101 4.09766 3.80591 4.09631C4.19702 4.09534 4.57935 3.97827 4.90405 3.76013ZM4.58276 0.940796C4.81567 1.09546 4.99731 1.3158 5.10498 1.57373C5.21265 1.83167 5.24146 2.11572 5.1875 2.39001C5.13379 2.66431 4.99976 2.91638 4.80249 3.11462C4.60547 3.31274 4.354 3.448 4.08008 3.50317C3.80591 3.55847 3.52173 3.53113 3.26318 3.42493C3.00488 3.3186 2.78369 3.13806 2.62769 2.90601C2.47192 2.67395 2.38818 2.401 2.38745 2.12146C2.38647 1.7467 2.53467 1.38684 2.79883 1.12109C3.06323 0.855469 3.42236 0.705566 3.79712 0.704712C4.07666 0.703979 4.3501 0.786133 4.58276 0.940796ZM5.72754 5.05298C5.12109 4.79382 4.46826 4.66101 3.80859 4.6626C3.14917 4.66431 2.49683 4.80054 1.89185 5.06287C1.28687 5.3252 0.741455 5.70825 0.289551 6.18848C0.191406 6.2937 0.137207 6.43225 0.137939 6.57605L0.141602 8.06274C0.14209 8.21265 0.201904 8.35632 0.30835 8.46204C0.414551 8.56775 0.55835 8.62695 0.708496 8.62659L6.92651 8.6106C7.07642 8.61023 7.21997 8.55029 7.32568 8.44397C7.43164 8.33777 7.49072 8.19385 7.49023 8.04395L7.48657 6.55725C7.48706 6.41382 7.43311 6.27551 7.33569 6.17041C6.8811 5.6925 6.33398 5.31226 5.72754 5.05298ZM0.707031 8.06128L0.703125 6.57178C1.10254 6.14893 1.58398 5.81189 2.11792 5.58093C2.65186 5.3501 3.22705 5.23022 3.80884 5.22876C4.39038 5.22729 4.96631 5.34412 5.50146 5.57227C6.03662 5.80042 6.51953 6.13501 6.92114 6.55579L6.92505 8.04529L0.707031 8.06128Z" stroke="#575DFB" stroke-width="0.275576"/>
	<defs/>
</svg>
