<svg width="17.312378" height="17.931824" viewBox="0 0 17.3124 17.9318" fill="none" xmlns="http://www.w3.org/2000/svg" xmlns:xlink="http://www.w3.org/1999/xlink">
	<desc>
			Created with Pixso.
	</desc>
	<path id="search" d="M17.0492 16.3331L12.7814 11.8943C13.8787 10.5899 14.4799 8.9486 14.4799 7.23997C14.4799 3.24791 11.232 0 7.23999 0C3.24792 0 0 3.24791 0 7.23997C0 11.232 3.24792 14.4799 7.23999 14.4799C8.73865 14.4799 10.1668 14.0279 11.3878 13.1698L15.688 17.6422C15.8678 17.8289 16.1096 17.9318 16.3687 17.9318C16.6138 17.9318 16.8464 17.8383 17.0231 17.6684C17.3983 17.3073 17.4102 16.7086 17.0492 16.3331ZM7.23999 1.88869C10.1907 1.88869 12.5912 4.28921 12.5912 7.23997C12.5912 10.1907 10.1907 12.5912 7.23999 12.5912C4.28918 12.5912 1.88867 10.1907 1.88867 7.23997C1.88867 4.28921 4.28918 1.88869 7.23999 1.88869Z" fill-rule="evenodd" fill="#262626"/>
	<defs/>
</svg>
